<mxfile host="65bd71144e">
    <diagram id="ZxhcJ7SBWRNTvmFCWBjs" name="Page-1">
        <mxGraphModel dx="3350" dy="957" grid="1" gridSize="10" guides="1" tooltips="1" connect="1" arrows="1" fold="1" page="1" pageScale="1" pageWidth="850" pageHeight="1100" math="0" shadow="0">
            <root>
                <mxCell id="0"/>
                <mxCell id="1" parent="0"/>
                <mxCell id="92" value="" style="shape=cube;whiteSpace=wrap;html=1;boundedLbl=1;backgroundOutline=1;darkOpacity=0.05;darkOpacity2=0.1;flipH=1;" vertex="1" parent="1">
                    <mxGeometry x="-1560" y="40" width="550" height="540" as="geometry"/>
                </mxCell>
                <mxCell id="93" value="&amp;lt;&amp;lt;device&amp;gt;&amp;gt;&lt;br&gt;Machine" style="text;html=1;strokeColor=none;fillColor=none;align=center;verticalAlign=middle;whiteSpace=wrap;rounded=0;" vertex="1" parent="1">
                    <mxGeometry x="-1360" y="80" width="60" height="30" as="geometry"/>
                </mxCell>
                <mxCell id="94" value="" style="shape=cube;whiteSpace=wrap;html=1;boundedLbl=1;backgroundOutline=1;darkOpacity=0.05;darkOpacity2=0.1;flipH=1;" vertex="1" parent="1">
                    <mxGeometry x="-1540" y="130" width="400" height="300" as="geometry"/>
                </mxCell>
                <mxCell id="95" value="&amp;lt;&amp;lt;executionEvironment&amp;gt;&amp;gt;&lt;br&gt;Docker Environment" style="text;html=1;strokeColor=none;fillColor=none;align=center;verticalAlign=middle;whiteSpace=wrap;rounded=0;" vertex="1" parent="1">
                    <mxGeometry x="-1405" y="160" width="60" height="30" as="geometry"/>
                </mxCell>
                <mxCell id="96" style="edgeStyle=none;html=1;exitX=0.5;exitY=0;exitDx=0;exitDy=0;entryX=0.824;entryY=1.001;entryDx=0;entryDy=0;entryPerimeter=0;startArrow=none;startFill=0;endArrow=classic;endFill=1;" edge="1" parent="1" source="97" target="94">
                    <mxGeometry relative="1" as="geometry"/>
                </mxCell>
                <mxCell id="97" value="" style="swimlane;startSize=0;" vertex="1" parent="1">
                    <mxGeometry x="-1540" y="470" width="140" height="100" as="geometry">
                        <mxRectangle x="-595" y="840" width="50" height="40" as="alternateBounds"/>
                    </mxGeometry>
                </mxCell>
                <mxCell id="98" value="" style="whiteSpace=wrap;html=1;shape=mxgraph.basic.document" vertex="1" parent="97">
                    <mxGeometry x="100" y="20" width="30" height="40" as="geometry"/>
                </mxCell>
                <mxCell id="99" value="docker-compose.yml" style="text;html=1;strokeColor=none;fillColor=none;align=center;verticalAlign=middle;whiteSpace=wrap;rounded=0;" vertex="1" parent="97">
                    <mxGeometry x="10" y="60" width="105" height="30" as="geometry"/>
                </mxCell>
                <mxCell id="100" value="&amp;lt;&amp;lt;deployment spec&amp;gt;&amp;gt;" style="text;html=1;strokeColor=none;fillColor=none;align=center;verticalAlign=middle;whiteSpace=wrap;rounded=0;" vertex="1" parent="97">
                    <mxGeometry x="-7.5" y="25" width="105" height="30" as="geometry"/>
                </mxCell>
                <mxCell id="101" value="deploy" style="text;html=1;align=center;verticalAlign=middle;resizable=0;points=[];autosize=1;strokeColor=none;fillColor=none;" vertex="1" parent="1">
                    <mxGeometry x="-1470" y="440" width="50" height="20" as="geometry"/>
                </mxCell>
                <mxCell id="102" value="&lt;br&gt;&amp;lt;&amp;lt;database&amp;gt;&amp;gt;&lt;br&gt;Postgres" style="strokeWidth=2;html=1;shape=mxgraph.flowchart.database;whiteSpace=wrap;direction=east;flipV=0;flipH=0;" vertex="1" parent="1">
                    <mxGeometry x="-1525" y="190" width="110" height="90" as="geometry"/>
                </mxCell>
                <mxCell id="103" value="&lt;&lt;component&gt;&gt;&#10;meh-telegram-bot" style="shape=module;align=left;spacingLeft=20;align=center;verticalAlign=top;direction=east;flipV=0;flipH=0;" vertex="1" parent="1">
                    <mxGeometry x="-1335" y="212.5" width="140" height="45" as="geometry"/>
                </mxCell>
                <mxCell id="104" value="&lt;&lt;component&gt;&gt;&#10;meh-documeht-handler&#10;" style="shape=module;align=left;spacingLeft=20;align=center;verticalAlign=top;direction=east;flipV=0;flipH=0;" vertex="1" parent="1">
                    <mxGeometry x="-1335" y="277.5" width="160" height="45" as="geometry"/>
                </mxCell>
                <mxCell id="105" value="&lt;&lt;component&gt;&gt;&#10;meh-web-app&#10;&#10;" style="shape=module;align=left;spacingLeft=20;align=center;verticalAlign=top;direction=east;flipV=0;flipH=0;" vertex="1" parent="1">
                    <mxGeometry x="-1335" y="345" width="140" height="45" as="geometry"/>
                </mxCell>
                <mxCell id="106" value="&lt;&lt;component&gt;&gt;&#10;meh-attendance-tracker-api&#10;" style="shape=module;align=left;spacingLeft=20;align=center;verticalAlign=top;direction=east;flipV=0;flipH=0;" vertex="1" parent="1">
                    <mxGeometry x="-1535" y="300" width="180" height="45" as="geometry"/>
                </mxCell>
                <mxCell id="107" value="" style="sketch=0;aspect=fixed;html=1;points=[];align=center;image;fontSize=12;image=img/lib/mscae/Docker.svg;" vertex="1" parent="1">
                    <mxGeometry x="-1300" y="156.5" width="50" height="41" as="geometry"/>
                </mxCell>
            </root>
        </mxGraphModel>
    </diagram>
</mxfile>